<?xml version="1.0" encoding="UTF-8" standalone="no"?>
<svg
   viewBox="0 0 300.00003 111.11111"
   version="1.1"
   id="svg8"
   sodipodi:docname="kristan-logo270-100.svg"
   width="270"
   height="100"
   inkscape:version="1.2.1 (9c6d41e410, 2022-07-14)"
   xmlns:inkscape="http://www.inkscape.org/namespaces/inkscape"
   xmlns:sodipodi="http://sodipodi.sourceforge.net/DTD/sodipodi-0.dtd"
   xmlns="http://www.w3.org/2000/svg"
   xmlns:svg="http://www.w3.org/2000/svg">
  <defs
     id="defs12" />
  <sodipodi:namedview
     id="namedview10"
     pagecolor="#ffffff"
     bordercolor="#000000"
     borderopacity="0.25"
     inkscape:showpageshadow="2"
     inkscape:pageopacity="0.0"
     inkscape:pagecheckerboard="0"
     inkscape:deskcolor="#d1d1d1"
     showgrid="false"
     inkscape:zoom="1.5703125"
     inkscape:cx="89.472637"
     inkscape:cy="114.94527"
     inkscape:window-width="1920"
     inkscape:window-height="991"
     inkscape:window-x="-9"
     inkscape:window-y="-9"
     inkscape:window-maximized="1"
     inkscape:current-layer="svg8" />
  <path
     d="m 46.521239,18.880965 q 0.45,-0.86 -0.26,-0.19 c -3.2,3.03 -22.24,20.8 -26.38,17.2 a 1.58,1.59 29.2 0 1 -0.47,-1.67 l 0.59,-1.85 a 0.89,0.89 0 0 1 1.29,-0.51 c 1.16,0.66 2.2,0.85 3.39,0.01 11.21,-7.88 23.79,-17.91 30.78,-30.6199997 q 0.99,-1.80000005 2.88,-1.01000005 l 0.25,0.1 a 1.5,1.5 0 0 1 0.75,2.08000005 l -25.89,48.8299997 q -0.99,1.86 0.45,0.33 c 4.63,-4.95 9.79,-8.83 15.01,-13.03 7.92,-6.37 15.08,-13.08 22.2,-20.03 1.73,-1.69 11.43,-10.1599997 13.7,-6.8 a 2.06,2.06 0 0 1 -0.13,2.48 q -3.26,3.88 -7.25,7.11 c -11.16,9.02 -23.76,17.93 -32.63,28.76 a 0.78,0.78 0 0 0 0.13,1.11 c 3.44,2.59 6.36,6.92 8.43,9.18 6.31,6.87 12.21,12.49 16.28,19.87 q 0.98,1.77 2.17,3.41 0.45,0.62 -0.25,0.3 -4.29,-1.96 -7.41,-5.52 -6.58,-7.52 -13.34,-14.88 c -2.23,-2.41 -5.47,-7.09 -9.18,-9.98 -0.69,-0.53 -1.11,-1.22 -1.52,-1.9 a 0.43,0.42 54.3 0 0 -0.64,-0.11 q -6.03,5.16 -11.36,10.47 c -5.33,5.31 -9.79,12.01 -14.51,18.22 q -5.87,7.73 -9.25,10.53 c -2.99,2.47 -5.49,-1.24 -3.81000003,-4.33 4.41000003,-8.12 12.59000003,-15.89 19.30000003,-22.2 3.34,-3.13 6.4,-7.9 9.01,-12.52 q 9.29,-16.42 17.67,-32.84 z"
     id="path2" />
  <path
     d="m 92.881239,66.220965 a 0.21,0.21 0 0 0 0.35,0.2 q 4.53,-4.76 8.530001,-8.2 c 3.87,-3.33 9.4,-6.63 14.03,-10.14 a 1.65,1.65 0 0 1 2.63,1.08 c 0.19,1.4 -0.73,2.69 0.21,4.52 q 4.33,8.47 12.39,13.26 a 2.15,2.17 86.3 0 1 0.54,0.47 q 2,2.43 -0.3,3.22 c -11.17,3.82 -22.05,9.01 -33.580001,11.61 q -0.81,0.19 -0.15,0.69 7.020001,5.35 14.880001,9.98 c 2.8,1.64 5.48,3.02 5.9,6.17 q 0.07,0.51 -0.44,0.52 -1.71,0.03 -3.15,-0.79 -8.06,-4.56 -20.030001,-12.91 -2.67,-1.86 -6.24,-1.5 c -1.98,0.2 -3.26,-0.2 -3.59,-2.23 q -0.08,-0.52 -0.37,-0.08 -4.81,7.48 -10.33,14.46 -2.1,2.65 -4.53,4.570005 a 1.75,1.76 53.7 0 1 -2.54,-0.39 c -3.64,-5.360005 14.04,-22.700005 17.71,-26.300005 q 2.62,-2.57 5.27,-10.09 0.16,-0.45 -0.21,-0.14 c -2.67,2.2 -6.18,4.88 -9.72,2.76 a 0.82,0.79 15.1 0 1 -0.4,-0.67 q -0.01,-0.48 0.24,-0.7 0.2,-0.16 0.61,-0.15 c 6.71,0.15 13.31,-9.05 16.69,-14.37 q 0.72,-1.14 1.87,-0.45 l 0.5,0.3 a 1.31,1.3 30.9 0 1 0.450001,1.78 c -2.430001,4.13 -6.070001,9.25 -7.220001,13.52 z m -5.76,13.73 c 13.480001,-1.05 26.050001,-6.62 38.460001,-11.61 a 0.37,0.37 0 0 0 0.09,-0.64 q -6.92,-5.46 -10.48,-13.55 a 0.88,0.88 0 0 0 -1.27,-0.4 c -8.75,5.33 -14.600001,10.77 -23.170001,19.65 q -2.5,2.59 -4.31,5.4 -0.81,1.26 0.68,1.15 z m 62.810001,-12.14 q -3.42,3.51 -8.09,4.92 -1.49,0.45 -2.62,-0.62 l -0.25,-0.24 a 0.86,0.86 0 0 1 0.33,-1.44 q 8.13,-2.66 12.02,-10.25 a 2.16,2.31 79.4 0 1 0.45,-0.61 q 2.09,-1.96 3.23,0.03 0.53,0.93 0.18,2.75 c -1.92,9.97 -5.69,22.39 -12.41,30.24 q -1.37,1.59 0.57,0.79 c 5.1,-2.11 9.9,-3.56 16.18,-3.75 q 0.53,-0.02 0.07,0.24 c -1.93,1.13 -3.76,2.47 -5.78,3.32 q -5.52,2.33 -12.6,4.75 c -1.53,0.52 -3.8,1.09 -4.99,-0.25 q -1.05,-1.17 0.3,-2.79 10.31,-12.37 13.75,-26.9 0.16,-0.7 -0.34,-0.19 z m 33.65,13.83 a 0.17,0.18 19 0 0 -0.11,-0.24 q -8.81,-2.44 -17.9,-2.61 a 2.62,2.62 0 0 1 -2.57,-2.55 c -0.11,-4.43 6.21,-9.12 9.6,-11.6 q 3.31,-2.43 5.88,-5.74 a 1.32,1.3 33.6 0 1 1.68,-0.33 l 0.23,0.14 a 1.53,1.52 29.4 0 1 0.58,2.07 q -1.7,3.02 -3.28,4.08 -6.06,4.08 -10.59,9.45 a 0.61,0.61 0 0 0 0.48,1 c 7.11,-0.14 13.99,1.59 20.81,3.36 q 1.51,0.39 2.29,1.08 a 1.77,1.77 0 0 1 -0.39,2.91 q -1.84,0.92 -3.91,2.43 -9.43,6.87 -18.71,13.93 -2.81,2.130005 -3.12,-0.38 a 1.28,1.27 60.9 0 1 0.26,-0.93 c 4.8,-6.06 12.21,-10.77 18.29,-15.46 q 0.34,-0.26 0.48,-0.61 z"
     id="path4" />
  <path
     d="m 201.96124,68.050965 a 0.5,0.5 0 0 0 -0.49,-0.66 l -13.22,0.55 a 1.1,1.11 89.3 0 1 -1.15,-1.11 l 0.01,-0.31 q 0.02,-1.35 1.36,-1.47 15.22,-1.41 29.74,-1.59 3.25,-0.04 6.01,0.98 0.9,0.33 -0.01,0.65 c -5.78,2.04 -11.97,1.29 -18.11,2.13 q -0.5,0.07 -0.65,0.55 -4.13,13.04 -7.75,26.16 -0.72,2.61 -2.18,4.37 -0.89,1.07 -0.99,-0.32 -0.19,-2.45 0.46,-5.36 2.83,-12.56 6.97,-24.57 z m 43.67,32.220005 a 0.59,0.59 0 0 0 1.04,-0.360005 l 0.35,-12.05 a 0.55,0.55 0 0 0 -0.56,-0.56 l -20.24,0.17 q -0.85,0.01 -1.52,0.52 l -13.38,10.18 a 1.51,1.51 0 0 1 -2.21,-0.42 l -0.21,-0.36 q -1.01,-1.66 0.64,-2.69 c 4.92,-3.1 10.95,-6.87 12.74,-10.84 q 0.21,-0.46 0.69,-0.6 c 1.33,-0.4 2.45,-0.76 3.52,-1.71 q 9.48,-8.47 21.05,-17.08 2.15,-1.6 4.21,-0.21 0.58,0.39 0.52,1.08 l -1.55,17.94 q -0.05,0.5 0.45,0.48 c 4.01,-0.1 7.63,-0.89 11.57,0.29 q 0.81,0.24 0.02,0.55 -5.54,2.16 -11.53,2.47 a 1.07,1.07 0 0 0 -1.01,0.99 c -0.37,5.05 -0.85,10.92 0.44,15.910005 q 0.29,1.14 -0.09,1.77 c -0.62,1.02 -1.77,0.76 -2.66,0.15 -2.78,-1.9 -6.93,-3.73 -7.74,-7.340005 a 1.1,1.1 0 0 1 1.52,-1.25 q 2.34,1.04 3.94,2.970005 z m 3.29,-31.710005 a 0.43,0.43 0 0 0 -0.69,-0.38 l -18.65,15.14 a 0.43,0.43 0 0 0 0.27,0.76 l 16.87,-0.28 a 0.43,0.43 0 0 0 0.42,-0.38 z m 25.01,12.86 c -1.15,5.15 -2.67,12.26 -5.9,16.51 q -1.39,1.84 -2.57,0.16 a 1.14,1.16 39.4 0 1 -0.1,-1.13 c 3.97,-8.6 5.77,-18.44 8.07,-27.6 q 0.35,-1.39 1.79,-1.24 a 1.61,1.6 88.1 0 1 1.42,1.34 c 1.63,10.03 1.27,20.27 1.34,30.4 q 0,0.820005 0.56,1.610005 0.32,0.45 0.49,-0.07 c 1.41,-4.330005 2.5,-8.740005 4.29,-12.870005 q 4.31,-9.93 8,-20.1 c 1.12,-3.09 3.66,-5.8 6.94,-3.97 0.88,0.48 1.4,1.42 0.77,2.29 a 1.05,1.02 17 0 1 -0.82,0.42 c -3.05,0.03 -3.7,2.59 -4.51,4.95 -2.88,8.41 -6.75,16.3 -9.5,24.74 q -1.79,5.500005 -4,11.230005 a 1.89,1.89 0 0 1 -1.78,1.21 c -3.87,-0.04 -3.83,-13.820005 -3.72,-15.940005 q 0.33,-6.5 -0.39,-11.93 -0.14,-1.08 -0.38,-0.01 z"
     id="path6" />
</svg>
