<?xml version="1.0" encoding="UTF-8" standalone="no"?>
<!DOCTYPE svg PUBLIC "-//W3C//DTD SVG 1.1//EN" "http://www.w3.org/Graphics/SVG/1.1/DTD/svg11.dtd">
<svg xmlns="http://www.w3.org/2000/svg" version="1.1" viewBox="0.00 0.00 319.00 222.00">
<g stroke-width="2.00" fill="none" stroke-linecap="butt">
<path stroke="#808080" vector-effect="non-scaling-stroke" d="
  M 84.80 140.74
  Q 84.97 139.12 85.77 140.54
  Q 96.31 159.22 105.94 178.05
  C 108.40 182.86 111.85 187.72 117.99 187.75
  Q 133.25 187.83 148.50 187.90
  C 152.45 187.91 155.42 187.21 157.50 183.30
  A 0.23 0.23 0.0 0 1 157.86 183.24
  C 161.22 186.36 163.05 188.34 168.00 188.32
  Q 180.87 188.28 193.75 188.26
  C 198.69 188.25 201.89 187.47 204.16 183.17
  Q 206.08 179.53 206.18 176.48
  C 206.61 163.68 207.56 150.92 208.28 138.14
  Q 208.32 137.41 209.06 137.32
  C 217.69 136.27 225.97 137.41 234.21 134.67
  C 255.45 127.60 275.37 115.69 282.31 93.54
  Q 283.67 89.19 283.69 83.30
  Q 283.71 76.07 283.11 72.90
  Q 279.37 52.93 261.60 43.37
  C 248.83 36.51 235.96 34.88 221.61 35.16
  Q 199.67 35.59 177.73 36.74
  Q 170.07 37.14 169.49 44.25
  Q 164.92 99.88 160.32 155.50
  Q 159.55 164.88 158.65 174.26
  Q 158.59 174.83 158.35 175.06
  A 0.69 0.68 53.2 0 1 157.27 174.90
  Q 140.17 143.78 123.78 112.23
  Q 122.10 109.01 124.32 105.81
  C 137.93 86.16 151.62 66.61 165.81 47.37
  C 170.02 41.66 162.71 36.00 157.44 35.35
  Q 151.02 34.55 131.75 34.59
  C 125.09 34.60 120.12 41.44 117.18 45.47
  Q 106.16 60.61 95.17 75.77
  C 93.68 77.82 92.44 80.11 91.22 82.27
  Q 89.78 84.81 90.12 81.91
  Q 91.97 66.25 93.55 49.26
  C 94.05 43.78 93.01 37.19 86.51 36.17
  Q 80.32 35.20 63.92 35.69
  Q 57.93 35.86 55.72 36.90
  C 50.11 39.53 49.48 46.42 48.74 52.25
  Q 39.18 127.11 33.56 173.75
  C 32.66 181.20 35.36 187.93 43.99 187.86
  Q 56.50 187.76 69.00 187.92
  C 75.13 188.00 80.12 182.73 80.77 177.00
  Q 82.89 158.45 84.80 140.74"
/>
<path stroke="#808080" vector-effect="non-scaling-stroke" d="
  M 230.16 97.66
  C 240.82 92.57 239.92 77.81 226.96 76.52
  Q 220.08 75.83 213.30 76.72
  Q 212.83 76.78 212.81 77.25
  L 211.89 100.00
  A 0.41 0.41 0.0 0 0 212.33 100.43
  C 218.01 100.02 224.96 100.14 230.16 97.66"
/>
</g>
<path fill="#000000" d="
  M 95.85 213.83
  C 91.21 216.95 87.12 220.43 81.04 220.44
  Q 69.63 220.46 58.23 220.49
  Q 53.93 220.50 42.80 221.22
  C 34.15 221.78 14.98 222.90 8.54 215.94
  C 1.62 208.46 0.72 200.63 1.68 191.24
  C 2.18 186.43 0.92 181.58 1.34 176.50
  C 2.29 164.98 3.43 153.37 5.51 142.00
  C 5.96 139.56 5.93 137.01 6.43 134.71
  C 8.06 127.10 8.65 118.86 9.89 111.80
  C 11.01 105.46 11.88 98.39 12.83 92.74
  Q 19.81 50.99 26.78 9.25
  C 27.55 4.59 37.43 1.21 40.89 1.06
  Q 59.27 0.27 90.73 1.04
  C 93.28 1.10 96.66 1.98 98.51 3.02
  C 101.19 4.54 109.37 8.33 111.95 6.66
  Q 118.09 2.69 120.35 1.84
  C 122.75 0.94 127.66 0.58 130.91 0.56
  Q 183.54 0.27 236.18 0.41
  C 240.13 0.42 244.33 0.91 248.45 1.08
  C 250.87 1.18 253.63 1.83 255.51 2.49
  Q 260.71 4.30 276.50 11.95
  C 283.67 15.43 290.19 22.87 295.57 28.67
  Q 306.58 40.54 311.20 50.08
  Q 314.43 56.75 315.66 68.83
  Q 316.52 77.26 315.88 90.28
  Q 315.63 95.23 314.23 100.06
  C 312.26 106.82 310.27 113.88 307.14 119.97
  C 304.33 125.44 300.01 133.63 295.24 137.50
  C 287.15 144.07 280.34 150.45 271.35 152.89
  Q 264.05 154.88 257.49 158.74
  C 256.26 159.47 252.13 159.37 250.20 159.87
  C 240.52 162.38 231.87 164.39 231.46 174.75
  Q 231.08 184.22 230.27 193.67
  C 229.55 201.93 231.39 210.10 223.62 215.30
  C 219.81 217.84 215.68 220.50 211.00 220.49
  Q 188.50 220.41 166.00 220.45
  Q 162.79 220.45 159.66 219.86
  C 156.51 219.26 154.76 220.31 151.87 220.34
  Q 126.82 220.61 110.50 220.38
  C 106.08 220.31 101.00 215.50 96.77 213.74
  Q 96.29 213.53 95.85 213.83
  Z
  M 84.80 140.74
  Q 84.97 139.12 85.77 140.54
  Q 96.31 159.22 105.94 178.05
  C 108.40 182.86 111.85 187.72 117.99 187.75
  Q 133.25 187.83 148.50 187.90
  C 152.45 187.91 155.42 187.21 157.50 183.30
  A 0.23 0.23 0.0 0 1 157.86 183.24
  C 161.22 186.36 163.05 188.34 168.00 188.32
  Q 180.87 188.28 193.75 188.26
  C 198.69 188.25 201.89 187.47 204.16 183.17
  Q 206.08 179.53 206.18 176.48
  C 206.61 163.68 207.56 150.92 208.28 138.14
  Q 208.32 137.41 209.06 137.32
  C 217.69 136.27 225.97 137.41 234.21 134.67
  C 255.45 127.60 275.37 115.69 282.31 93.54
  Q 283.67 89.19 283.69 83.30
  Q 283.71 76.07 283.11 72.90
  Q 279.37 52.93 261.60 43.37
  C 248.83 36.51 235.96 34.88 221.61 35.16
  Q 199.67 35.59 177.73 36.74
  Q 170.07 37.14 169.49 44.25
  Q 164.92 99.88 160.32 155.50
  Q 159.55 164.88 158.65 174.26
  Q 158.59 174.83 158.35 175.06
  A 0.69 0.68 53.2 0 1 157.27 174.90
  Q 140.17 143.78 123.78 112.23
  Q 122.10 109.01 124.32 105.81
  C 137.93 86.16 151.62 66.61 165.81 47.37
  C 170.02 41.66 162.71 36.00 157.44 35.35
  Q 151.02 34.55 131.75 34.59
  C 125.09 34.60 120.12 41.44 117.18 45.47
  Q 106.16 60.61 95.17 75.77
  C 93.68 77.82 92.44 80.11 91.22 82.27
  Q 89.78 84.81 90.12 81.91
  Q 91.97 66.25 93.55 49.26
  C 94.05 43.78 93.01 37.19 86.51 36.17
  Q 80.32 35.20 63.92 35.69
  Q 57.93 35.86 55.72 36.90
  C 50.11 39.53 49.48 46.42 48.74 52.25
  Q 39.18 127.11 33.56 173.75
  C 32.66 181.20 35.36 187.93 43.99 187.86
  Q 56.50 187.76 69.00 187.92
  C 75.13 188.00 80.12 182.73 80.77 177.00
  Q 82.89 158.45 84.80 140.74
  Z"
/>
<path fill="#ffffff" d="
  M 84.80 140.74
  Q 82.89 158.45 80.77 177.00
  C 80.12 182.73 75.13 188.00 69.00 187.92
  Q 56.50 187.76 43.99 187.86
  C 35.36 187.93 32.66 181.20 33.56 173.75
  Q 39.18 127.11 48.74 52.25
  C 49.48 46.42 50.11 39.53 55.72 36.90
  Q 57.93 35.86 63.92 35.69
  Q 80.32 35.20 86.51 36.17
  C 93.01 37.19 94.05 43.78 93.55 49.26
  Q 91.97 66.25 90.12 81.91
  Q 89.78 84.81 91.22 82.27
  C 92.44 80.11 93.68 77.82 95.17 75.77
  Q 106.16 60.61 117.18 45.47
  C 120.12 41.44 125.09 34.60 131.75 34.59
  Q 151.02 34.55 157.44 35.35
  C 162.71 36.00 170.02 41.66 165.81 47.37
  C 151.62 66.61 137.93 86.16 124.32 105.81
  Q 122.10 109.01 123.78 112.23
  Q 140.17 143.78 157.27 174.90
  A 0.69 0.68 53.2 0 0 158.35 175.06
  Q 158.59 174.83 158.65 174.26
  Q 159.55 164.88 160.32 155.50
  Q 164.92 99.88 169.49 44.25
  Q 170.07 37.14 177.73 36.74
  Q 199.67 35.59 221.61 35.16
  C 235.96 34.88 248.83 36.51 261.60 43.37
  Q 279.37 52.93 283.11 72.90
  Q 283.71 76.07 283.69 83.30
  Q 283.67 89.19 282.31 93.54
  C 275.37 115.69 255.45 127.60 234.21 134.67
  C 225.97 137.41 217.69 136.27 209.06 137.32
  Q 208.32 137.41 208.28 138.14
  C 207.56 150.92 206.61 163.68 206.18 176.48
  Q 206.08 179.53 204.16 183.17
  C 201.89 187.47 198.69 188.25 193.75 188.26
  Q 180.87 188.28 168.00 188.32
  C 163.05 188.34 161.22 186.36 157.86 183.24
  A 0.23 0.23 0.0 0 0 157.50 183.30
  C 155.42 187.21 152.45 187.91 148.50 187.90
  Q 133.25 187.83 117.99 187.75
  C 111.85 187.72 108.40 182.86 105.94 178.05
  Q 96.31 159.22 85.77 140.54
  Q 84.97 139.12 84.80 140.74
  Z
  M 230.16 97.66
  C 240.82 92.57 239.92 77.81 226.96 76.52
  Q 220.08 75.83 213.30 76.72
  Q 212.83 76.78 212.81 77.25
  L 211.89 100.00
  A 0.41 0.41 0.0 0 0 212.33 100.43
  C 218.01 100.02 224.96 100.14 230.16 97.66
  Z"
/>
<path fill="#000000" d="
  M 226.96 76.52
  C 239.92 77.81 240.82 92.57 230.16 97.66
  C 224.96 100.14 218.01 100.02 212.33 100.43
  A 0.41 0.41 0.0 0 1 211.89 100.00
  L 212.81 77.25
  Q 212.83 76.78 213.30 76.72
  Q 220.08 75.83 226.96 76.52
  Z"
/>
</svg>
