<?xml version="1.0" encoding="UTF-8" standalone="no"?>
<svg
   version="1.1"
   viewBox="0 0 314.9003 221.28249"
   id="svg364"
   sodipodi:docname="logo-short.svg"
   width="314.9003"
   height="221.28249"
   inkscape:version="1.2.1 (9c6d41e410, 2022-07-14)"
   xmlns:inkscape="http://www.inkscape.org/namespaces/inkscape"
   xmlns:sodipodi="http://sodipodi.sourceforge.net/DTD/sodipodi-0.dtd"
   xmlns="http://www.w3.org/2000/svg"
   xmlns:svg="http://www.w3.org/2000/svg">
  <defs
     id="defs368" />
  <sodipodi:namedview
     id="namedview366"
     pagecolor="#ffffff"
     bordercolor="#000000"
     borderopacity="0.25"
     inkscape:showpageshadow="2"
     inkscape:pageopacity="0.0"
     inkscape:pagecheckerboard="0"
     inkscape:deskcolor="#d1d1d1"
     showgrid="false"
     inkscape:zoom="3.6216216"
     inkscape:cx="158.35448"
     inkscape:cy="110.86194"
     inkscape:window-width="1920"
     inkscape:window-height="991"
     inkscape:window-x="-9"
     inkscape:window-y="-9"
     inkscape:window-maximized="1"
     inkscape:current-layer="svg364" />
  <g
     stroke-width="2"
     fill="none"
     stroke-linecap="butt"
     id="g356"
     transform="translate(-1.252762,-0.3644186)">
    <path
       stroke="#808080"
       vector-effect="non-scaling-stroke"
       d="m 84.8,140.74 q 0.17,-1.62 0.97,-0.2 10.54,18.68 20.17,37.51 c 2.46,4.81 5.91,9.67 12.05,9.7 q 15.26,0.08 30.51,0.15 c 3.95,0.01 6.92,-0.69 9,-4.6 a 0.23,0.23 0 0 1 0.36,-0.06 c 3.36,3.12 5.19,5.1 10.14,5.08 q 12.87,-0.04 25.75,-0.06 c 4.94,-0.01 8.14,-0.79 10.41,-5.09 q 1.92,-3.64 2.02,-6.69 c 0.43,-12.8 1.38,-25.56 2.1,-38.34 q 0.04,-0.73 0.78,-0.82 c 8.63,-1.05 16.91,0.09 25.15,-2.65 21.24,-7.07 41.16,-18.98 48.1,-41.13 q 1.36,-4.35 1.38,-10.24 0.02,-7.23 -0.58,-10.4 -3.74,-19.97 -21.51,-29.53 c -12.77,-6.86 -25.64,-8.49 -39.99,-8.21 q -21.94,0.43 -43.88,1.58 -7.66,0.4 -8.24,7.51 -4.57,55.63 -9.17,111.25 -0.77,9.38 -1.67,18.76 -0.06,0.57 -0.3,0.8 a 0.69,0.68 53.2 0 1 -1.08,-0.16 q -17.1,-31.12 -33.49,-62.67 -1.68,-3.22 0.54,-6.42 c 13.61,-19.65 27.3,-39.2 41.49,-58.44 4.21,-5.71 -3.1,-11.37 -8.37,-12.02 q -6.42,-0.8 -25.69,-0.76 c -6.66,0.01 -11.63,6.85 -14.57,10.88 q -11.02,15.14 -22.01,30.3 c -1.49,2.05 -2.73,4.34 -3.95,6.5 q -1.44,2.54 -1.1,-0.36 1.85,-15.66 3.43,-32.65 c 0.5,-5.48 -0.54,-12.07 -7.04,-13.09 q -6.19,-0.97 -22.59,-0.48 -5.99,0.17 -8.2,1.21 c -5.61,2.63 -6.24,9.52 -6.98,15.35 q -9.56,74.86 -15.18,121.5 c -0.9,7.45 1.8,14.18 10.43,14.11 Q 56.5,187.76 69,187.92 C 75.13,188 80.12,182.73 80.77,177 q 2.12,-18.55 4.03,-36.26"
       id="path352" />
    <path
       stroke="#808080"
       vector-effect="non-scaling-stroke"
       d="m 230.16,97.66 c 10.66,-5.09 9.76,-19.85 -3.2,-21.14 q -6.88,-0.69 -13.66,0.2 -0.47,0.06 -0.49,0.53 L 211.89,100 a 0.41,0.41 0 0 0 0.44,0.43 c 5.68,-0.41 12.63,-0.29 17.83,-2.77"
       id="path354" />
  </g>
  <path
     fill="#000000"
     d="m 94.597238,213.46558 c -4.64,3.12 -8.73,6.6 -14.81,6.61 q -11.41,0.02 -22.81,0.05 -4.3,0.01 -15.43,0.73 c -8.65,0.56 -27.82,1.68 -34.26,-5.28 -6.92000001,-7.48 -7.82000001,-15.31 -6.86000001,-24.7 0.5,-4.81 -0.76,-9.66 -0.34,-14.74 0.95000001,-11.52 2.09000001,-23.13 4.17000001,-34.5 0.45,-2.44 0.42,-4.99 0.92,-7.29 1.63,-7.61 2.22,-15.85 3.46,-22.91 1.12,-6.34 1.99,-13.409999 2.94,-19.059999 q 6.98,-41.75 13.95,-83.4899996 c 0.77,-4.66 10.65,-8.04 14.11,-8.19 q 18.38,-0.79 49.84,-0.02 c 2.55,0.06 5.93,0.94 7.78,1.98 2.68,1.52 10.860002,5.31 13.440002,3.64 q 6.14,-3.97 8.4,-4.82 c 2.4,-0.9 7.31,-1.26 10.56,-1.28 q 52.63,-0.29 105.27,-0.15 c 3.95,0.01 8.15,0.5 12.27,0.67 2.42,0.1 5.18,0.75 7.06,1.41 q 5.2,1.81 20.99,9.4599996 c 7.17,3.48 13.69,10.92 19.07,16.72 q 11.01,11.87 15.63,21.41 3.23,6.67 4.46,18.75 0.86,8.43 0.22,21.45 -0.25,4.95 -1.65,9.78 c -1.97,6.759999 -3.96,13.819999 -7.09,19.909999 -2.81,5.47 -7.13,13.66 -11.9,17.53 -8.09,6.57 -14.9,12.95 -23.89,15.39 q -7.3,1.99 -13.86,5.85 c -1.23,0.73 -5.36,0.63 -7.29,1.13 -9.68,2.51 -18.33,4.52 -18.74,14.88 q -0.38,9.47 -1.19,18.92 c -0.72,8.26 1.12,16.43 -6.65,21.63 -3.81,2.54 -7.94,5.2 -12.62,5.19 q -22.5,-0.08 -45,-0.04 -3.21,0 -6.34,-0.59 c -3.15,-0.6 -4.9,0.45 -7.79,0.48 q -25.05,0.27 -41.37,0.04 c -4.42,-0.07 -9.500002,-4.88 -13.730002,-6.64 q -0.48,-0.21 -0.92,0.09 z m -11.05,-73.09 q 0.17,-1.62 0.97,-0.2 10.54,18.68 20.170002,37.51 c 2.46,4.81 5.91,9.67 12.05,9.7 q 15.26,0.08 30.51,0.15 c 3.95,0.01 6.92,-0.69 9,-4.6 a 0.23,0.23 0 0 1 0.36,-0.06 c 3.36,3.12 5.19,5.1 10.14,5.08 q 12.87,-0.04 25.75,-0.06 c 4.94,-0.01 8.14,-0.79 10.41,-5.09 q 1.92,-3.64 2.02,-6.69 c 0.43,-12.8 1.38,-25.56 2.1,-38.34 q 0.04,-0.73 0.78,-0.82 c 8.63,-1.05 16.91,0.09 25.15,-2.65 21.24,-7.07 41.16,-18.98 48.1,-41.129999 q 1.36,-4.35 1.38,-10.24 0.02,-7.23 -0.58,-10.4 -3.74,-19.97 -21.51,-29.53 c -12.77,-6.86 -25.64,-8.49 -39.99,-8.21 q -21.94,0.43 -43.88,1.58 -7.66,0.4 -8.24,7.51 -4.57,55.63 -9.17,111.249999 -0.77,9.38 -1.67,18.76 -0.06,0.57 -0.3,0.8 a 0.69,0.68 53.2 0 1 -1.08,-0.16 q -17.1,-31.12 -33.49,-62.67 -1.68,-3.22 0.54,-6.42 c 13.61,-19.649999 27.3,-39.199999 41.49,-58.439999 4.21,-5.71 -3.1,-11.37 -8.37,-12.02 q -6.42,-0.8 -25.69,-0.76 c -6.66,0.01 -11.63,6.85 -14.57,10.88 q -11.02,15.14 -22.010002,30.3 c -1.49,2.05 -2.73,4.34 -3.95,6.5 q -1.44,2.54 -1.1,-0.36 1.85,-15.66 3.43,-32.65 c 0.5,-5.48 -0.54,-12.07 -7.04,-13.09 q -6.19,-0.97 -22.59,-0.48 -5.99,0.17 -8.2,1.21 c -5.61,2.63 -6.24,9.52 -6.98,15.35 q -9.56,74.859999 -15.18,121.499999 c -0.9,7.45 1.8,14.18 10.43,14.11 q 12.51,-0.1 25.01,0.06 c 6.13,0.08 11.12,-5.19 11.77,-10.92 q 2.12,-18.55 4.03,-36.26 z"
     id="path358" />
  <path
     fill="#ffffff"
     d="m 83.547238,140.37558 q -1.91,17.71 -4.03,36.26 c -0.65,5.73 -5.64,11 -11.77,10.92 q -12.5,-0.16 -25.01,-0.06 c -8.63,0.07 -11.33,-6.66 -10.43,-14.11 q 5.62,-46.64 15.18,-121.499999 c 0.74,-5.83 1.37,-12.72 6.98,-15.35 q 2.21,-1.04 8.2,-1.21 16.4,-0.49 22.59,0.48 c 6.5,1.02 7.54,7.61 7.04,13.09 q -1.58,16.99 -3.43,32.65 -0.34,2.9 1.1,0.36 c 1.22,-2.16 2.46,-4.45 3.95,-6.5 q 10.990002,-15.16 22.010002,-30.3 c 2.94,-4.03 7.91,-10.87 14.57,-10.88 q 19.27,-0.04 25.69,0.76 c 5.27,0.65 12.58,6.31 8.37,12.02 -14.19,19.24 -27.88,38.79 -41.49,58.439999 q -2.22,3.2 -0.54,6.42 16.39,31.55 33.49,62.67 a 0.69,0.68 53.2 0 0 1.08,0.16 q 0.24,-0.23 0.3,-0.8 0.9,-9.38 1.67,-18.76 4.6,-55.619999 9.17,-111.249999 0.58,-7.11 8.24,-7.51 21.94,-1.15 43.88,-1.58 c 14.35,-0.28 27.22,1.35 39.99,8.21 q 17.77,9.56 21.51,29.53 0.6,3.17 0.58,10.4 -0.02,5.89 -1.38,10.24 c -6.94,22.149999 -26.86,34.059999 -48.1,41.129999 -8.24,2.74 -16.52,1.6 -25.15,2.65 q -0.74,0.09 -0.78,0.82 c -0.72,12.78 -1.67,25.54 -2.1,38.34 q -0.1,3.05 -2.02,6.69 c -2.27,4.3 -5.47,5.08 -10.41,5.09 q -12.88,0.02 -25.75,0.06 c -4.95,0.02 -6.78,-1.96 -10.14,-5.08 a 0.23,0.23 0 0 0 -0.36,0.06 c -2.08,3.91 -5.05,4.61 -9,4.6 q -15.25,-0.07 -30.51,-0.15 c -6.14,-0.03 -9.59,-4.89 -12.05,-9.7 q -9.630002,-18.83 -20.170002,-37.51 -0.8,-1.42 -0.97,0.2 z M 228.90724,97.295581 c 10.66,-5.09 9.76,-19.85 -3.2,-21.14 q -6.88,-0.69 -13.66,0.2 -0.47,0.06 -0.49,0.53 l -0.92,22.75 a 0.41,0.41 0 0 0 0.44,0.429999 c 5.68,-0.409999 12.63,-0.289999 17.83,-2.769999 z"
     id="path360" />
  <path
     fill="#000000"
     d="m 225.70724,76.155581 c 12.96,1.29 13.86,16.05 3.2,21.14 -5.2,2.48 -12.15,2.36 -17.83,2.769999 a 0.41,0.41 0 0 1 -0.44,-0.429999 l 0.92,-22.75 q 0.02,-0.47 0.49,-0.53 6.78,-0.89 13.66,-0.2 z"
     id="path362" />
</svg>
