<?xml version="1.0" encoding="UTF-8" standalone="no"?>
<!DOCTYPE svg PUBLIC "-//W3C//DTD SVG 1.1//EN" "http://www.w3.org/Graphics/SVG/1.1/DTD/svg11.dtd">
<svg xmlns="http://www.w3.org/2000/svg" version="1.1" viewBox="0.00 0.00 863.00 227.00">
<g stroke-width="2.00" fill="none" stroke-linecap="butt">
<path stroke="#808080" vector-effect="non-scaling-stroke" d="
  M 658.24 134.22
  Q 658.88 136.48 659.06 138.00
  Q 660.09 146.70 660.68 157.49
  Q 661.34 169.50 662.23 181.50
  C 662.56 186.04 665.79 192.02 671.00 192.15
  Q 683.67 192.47 696.32 191.83
  C 698.86 191.70 700.25 191.64 701.12 188.93
  Q 702.13 185.73 701.80 183.50
  C 696.94 150.78 691.38 118.20 686.34 85.51
  C 685.77 81.82 684.50 75.89 683.70 70.50
  Q 682.68 63.62 678.04 38.78
  Q 677.52 36.03 675.57 34.66
  C 670.31 30.98 665.21 30.21 658.23 30.18
  Q 643.33 30.11 628.43 30.17
  C 620.72 30.20 616.06 29.93 612.14 36.22
  C 608.56 41.96 607.57 46.98 606.90 53.83
  C 603.53 88.08 599.20 122.21 596.31 156.51
  Q 595.67 164.02 594.63 171.49
  C 594.15 174.90 594.32 178.20 594.36 181.60
  C 594.50 194.74 612.02 191.95 620.10 192.63
  Q 623.52 192.92 625.88 192.53
  C 633.35 191.28 636.53 189.49 636.98 181.24
  Q 637.70 167.87 638.03 154.49
  Q 638.22 146.23 638.94 138.01
  Q 639.21 134.88 642.50 134.27
  Q 650.66 132.76 657.54 133.62
  Q 658.09 133.69 658.24 134.22"
/>
<path stroke="#808080" vector-effect="non-scaling-stroke" d="
  M 471.21 126.28
  C 462.16 107.66 440.97 104.59 423.16 100.43
  Q 415.30 98.59 411.96 95.84
  C 406.69 91.51 407.35 83.38 413.50 80.67
  C 421.64 77.08 432.24 79.97 441.65 82.54
  C 444.79 83.39 449.20 84.09 451.44 82.48
  C 455.60 79.48 460.65 72.64 464.41 68.23
  C 467.17 64.98 469.90 62.32 470.89 58.92
  Q 471.03 58.43 470.86 57.95
  Q 468.40 50.99 462.03 47.14
  C 445.27 37.02 424.21 35.97 405.53 40.36
  C 380.14 46.33 358.23 67.73 359.82 95.33
  C 361.04 116.71 374.84 126.38 394.11 131.12
  Q 401.26 132.88 408.47 134.42
  Q 416.66 136.16 419.04 137.86
  C 426.23 142.98 423.72 149.94 417.15 153.40
  C 407.48 158.50 389.34 155.22 379.50 152.02
  Q 377.71 151.43 374.16 151.24
  A 1.52 1.45 27.8 0 0 373.21 151.51
  C 367.54 155.60 361.86 162.95 358.55 168.64
  C 353.54 177.25 363.71 185.88 370.83 188.92
  C 389.75 197.00 414.66 197.80 434.52 193.00
  C 449.19 189.46 461.26 179.69 468.81 166.76
  C 475.54 155.24 477.15 138.51 471.21 126.28"
/>
<path stroke="#808080" vector-effect="non-scaling-stroke" d="
  M 755.17 138.46
  Q 756.46 139.43 757.46 141.06
  C 765.78 154.55 775.92 168.45 785.04 182.18
  C 787.36 185.67 791.96 192.10 796.50 192.11
  Q 809.87 192.16 823.25 192.13
  C 831.27 192.12 833.01 183.99 832.21 178.00
  Q 824.25 118.12 816.14 58.26
  C 815.05 50.24 814.33 39.31 803.53 38.93
  Q 792.39 38.54 781.26 39.21
  C 775.42 39.56 772.62 44.79 773.01 50.00
  Q 774.72 72.74 777.44 96.03
  A 0.33 0.33 0.0 0 1 776.92 96.33
  Q 776.48 96.01 776.08 95.44
  Q 764.60 79.18 753.55 62.64
  C 747.97 54.30 739.65 40.25 735.02 39.74
  Q 729.95 39.18 716.91 39.71
  C 709.67 40.01 704.77 39.59 701.99 46.19
  C 700.79 49.01 701.19 54.29 701.43 57.44
  Q 706.02 118.46 710.40 179.50
  C 710.79 184.86 714.40 192.23 720.25 192.22
  Q 739.94 192.20 746.51 192.42
  C 756.73 192.75 758.51 184.78 757.69 176.50
  Q 755.81 157.66 754.60 138.76
  Q 754.56 137.99 755.17 138.46"
/>
<path stroke="#808080" vector-effect="non-scaling-stroke" d="
  M 90.08 86.86
  Q 92.12 70.40 93.34 52.24
  C 93.72 46.58 91.59 41.65 85.17 41.33
  Q 75.21 40.84 65.21 40.95
  Q 58.11 41.03 55.45 42.33
  C 50.21 44.88 49.36 51.60 48.67 56.99
  Q 40.91 117.47 33.41 177.98
  Q 32.83 182.57 33.65 185.73
  C 35.26 191.92 39.86 193.03 45.98 193.06
  Q 55.17 193.10 64.34 193.13
  C 70.76 193.16 74.53 193.50 77.97 188.52
  Q 80.40 185.01 80.77 181.75
  Q 82.83 163.52 84.66 146.58
  Q 84.94 143.99 86.14 146.31
  C 90.58 154.93 95.56 163.35 99.82 171.94
  C 103.76 179.90 107.33 188.37 113.54 192.25
  A 4.80 4.78 -28.3 0 0 115.96 192.97
  Q 132.57 193.37 149.75 193.18
  Q 154.86 193.13 157.31 188.95
  Q 157.58 188.49 158.01 188.81
  C 160.65 190.80 162.28 193.38 166.00 193.42
  Q 181.00 193.55 196.00 193.44
  C 202.00 193.39 205.82 187.53 206.03 182.50
  Q 206.87 162.67 208.38 144.25
  Q 208.62 141.40 210.00 143.90
  Q 221.36 164.46 232.38 185.54
  C 234.41 189.43 237.78 193.48 242.75 193.43
  Q 265.01 193.22 288.08 193.23
  A 1.22 1.22 0.0 0 0 289.26 191.71
  C 288.72 189.56 287.80 187.39 286.56 185.31
  Q 272.56 161.86 259.11 138.09
  Q 257.43 135.12 256.10 132.02
  A 1.25 1.24 61.8 0 1 256.56 130.49
  C 269.37 121.97 281.00 108.93 283.53 93.51
  C 289.13 59.30 258.32 40.44 228.50 40.49
  Q 205.16 40.52 181.86 41.98
  C 175.19 42.40 169.95 42.45 169.34 50.00
  Q 165.38 99.64 161.31 149.27
  Q 160.05 164.67 158.38 179.97
  A 0.55 0.52 -21.6 0 1 158.24 180.27
  Q 157.68 180.83 157.24 180.03
  Q 141.93 152.32 127.20 124.29
  Q 124.47 119.10 123.22 115.96
  C 122.42 113.96 123.10 112.83 124.21 111.21
  C 133.71 97.30 143.48 83.58 153.15 69.78
  Q 159.08 61.32 165.51 53.23
  C 170.22 47.29 162.84 41.15 157.25 40.76
  Q 144.01 39.81 130.75 40.03
  C 124.04 40.13 117.80 49.67 114.09 54.84
  Q 104.37 68.35 94.71 81.91
  Q 92.70 84.74 91.25 87.25
  Q 89.70 89.95 90.08 86.86"
/>
<path stroke="#808080" vector-effect="non-scaling-stroke" d="
  M 292.63 181.99
  A 10.89 10.89 0.0 0 0 303.50 193.53
  L 331.03 193.54
  A 10.89 10.89 0.0 0 0 341.92 183.04
  L 346.58 53.72
  A 10.89 10.89 0.0 0 0 335.56 42.44
  L 311.17 42.74
  A 10.89 10.89 0.0 0 0 300.43 52.97
  L 292.63 181.99"
/>
<path stroke="#808080" vector-effect="non-scaling-stroke" d="
  M 513.49 82.65
  A 0.52 0.52 0.0 0 1 513.89 83.13
  Q 515.51 125.16 517.38 167.25
  Q 517.71 174.88 518.44 182.48
  C 519.05 188.85 522.94 192.70 529.25 192.72
  Q 539.85 192.75 550.46 192.80
  C 557.88 192.83 563.32 193.61 566.02 186.57
  C 567.16 183.61 566.92 179.09 566.74 176.00
  C 564.98 145.08 563.98 114.12 561.62 83.24
  A 0.52 0.52 0.0 0 1 562.12 82.67
  Q 573.96 82.33 586.00 82.57
  C 592.90 82.71 594.79 83.13 598.20 77.19
  Q 599.25 75.36 599.21 73.07
  Q 599.07 62.67 598.30 52.30
  C 598.10 49.54 597.21 47.47 595.64 45.39
  C 593.83 42.98 591.38 43.19 588.25 43.14
  Q 536.63 42.35 485.00 42.74
  C 477.93 42.80 472.22 44.56 471.84 52.29
  Q 471.55 58.28 471.91 68.25
  C 472.15 74.74 472.97 81.68 481.25 81.89
  Q 495.87 82.27 510.50 82.34
  Q 512.11 82.34 513.49 82.65"
/>
<path stroke="#808080" vector-effect="non-scaling-stroke" d="
  M 654.17 82.24
  C 653.70 76.41 647.49 76.37 643.16 77.85
  A 1.11 1.09 0.4 0 0 642.47 78.52
  Q 641.34 81.77 640.91 87.30
  Q 639.94 99.70 639.77 112.08
  A 1.04 1.04 0.0 0 0 640.80 113.14
  L 655.47 113.24
  A 1.13 1.13 0.0 0 0 656.60 112.02
  Q 655.34 96.62 654.17 82.24"
/>
<path stroke="#808080" vector-effect="non-scaling-stroke" d="
  M 212.72 81.99
  L 211.84 105.22
  Q 211.82 105.61 212.21 105.60
  Q 219.79 105.46 225.71 104.40
  C 232.00 103.27 238.21 97.77 237.46 90.94
  C 236.23 79.73 220.44 81.36 212.83 81.87
  A 0.12 0.12 0.0 0 0 212.72 81.99"
/>
</g>
<path fill="#000000" d="
  M 584.57 218.35
  Q 583.29 218.79 582.08 219.82
  C 577.21 223.93 572.81 225.71 566.05 225.70
  Q 543.27 225.67 520.50 225.69
  Q 514.82 225.70 511.17 224.47
  C 499.68 220.60 493.29 211.85 487.73 201.56
  Q 486.55 199.39 484.78 201.10
  C 479.13 206.55 473.37 212.99 466.49 216.83
  C 454.61 223.47 443.20 226.52 429.25 226.16
  Q 420.08 225.91 390.12 225.71
  C 380.31 225.65 372.88 222.94 364.29 218.59
  Q 363.10 217.99 361.68 218.97
  C 357.47 221.86 353.37 225.72 347.54 225.72
  Q 324.98 225.73 302.43 225.75
  Q 301.48 225.75 297.13 225.15
  C 294.12 224.74 291.24 225.70 288.62 225.71
  Q 263.25 225.76 237.88 225.70
  C 234.77 225.69 229.07 221.97 226.05 220.18
  A 2.20 2.18 41.2 0 0 223.59 220.33
  C 219.46 223.52 215.69 225.76 210.24 225.74
  Q 188.11 225.65 166.00 225.83
  C 162.34 225.86 158.49 224.35 154.65 225.25
  Q 152.73 225.71 151.10 225.71
  Q 131.05 225.72 111.00 225.75
  C 106.34 225.75 101.24 221.11 97.15 219.13
  A 1.85 1.85 0.0 0 0 95.18 219.36
  C 91.26 222.54 86.61 225.70 81.37 225.71
  Q 66.02 225.74 50.68 225.73
  C 48.70 225.73 46.77 226.42 45.00 226.51
  C 39.59 226.79 29.52 227.77 24.05 225.37
  C 17.02 222.28 13.24 215.28 9.04 209.21
  Q 5.19 203.65 3.70 199.51
  C 0.30 190.10 1.00 183.10 2.09 171.83
  C 3.27 159.65 5.16 147.53 7.20 135.55
  C 8.22 129.58 8.66 123.47 9.70 117.71
  C 10.93 110.86 11.89 103.12 12.90 97.11
  Q 19.83 55.80 26.70 14.49
  C 27.40 10.30 36.67 6.44 40.75 6.33
  Q 70.00 5.60 91.25 6.28
  C 96.29 6.43 108.15 14.40 111.95 11.89
  C 117.65 8.15 122.11 5.80 128.75 5.68
  C 162.19 5.09 199.72 5.52 235.25 5.32
  C 247.95 5.24 258.68 7.87 269.47 14.40
  C 273.85 17.05 277.52 22.82 283.58 22.82
  C 293.90 22.83 300.81 16.42 310.47 14.71
  C 321.80 12.72 331.88 13.96 343.59 15.49
  C 350.21 16.36 355.79 18.72 361.43 21.58
  Q 363.59 22.68 365.47 21.42
  C 374.35 15.41 382.82 10.40 392.31 8.38
  Q 395.69 7.65 401.73 7.22
  C 406.89 6.84 411.99 6.16 417.11 6.23
  Q 427.94 6.38 438.75 6.40
  C 450.46 6.43 463.94 12.66 474.55 15.43
  C 477.68 16.24 481.30 14.12 484.25 14.09
  Q 536.25 13.45 588.25 12.66
  C 590.10 12.63 593.14 13.86 595.03 13.21
  C 597.47 12.36 599.85 9.48 601.75 7.75
  Q 604.21 5.51 606.67 4.32
  Q 613.71 0.91 620.00 0.80
  Q 630.29 0.62 669.43 1.39
  C 675.09 1.50 679.08 2.11 682.55 6.17
  A 2.21 2.18 -18.4 0 0 684.11 6.94
  C 687.94 7.16 691.36 7.52 695.20 6.62
  C 700.05 5.50 704.73 4.12 709.72 3.97
  Q 719.74 3.67 729.76 3.60
  Q 734.31 3.58 738.00 4.32
  C 744.46 5.62 748.17 8.29 753.29 10.81
  C 755.03 11.67 756.83 11.31 758.27 10.30
  C 767.36 3.93 774.28 4.33 787.51 3.79
  Q 801.35 3.22 812.76 4.90
  C 823.46 6.47 831.25 12.87 837.47 21.85
  C 841.79 28.07 843.87 35.32 844.88 42.76
  Q 851.22 89.35 857.39 135.97
  Q 858.09 141.22 858.61 146.48
  C 859.52 155.64 860.93 165.00 862.07 174.24
  C 864.41 193.20 858.28 216.89 838.58 224.37
  Q 835.51 225.54 831.26 225.56
  Q 810.37 225.65 789.50 225.58
  Q 785.39 225.57 783.17 224.24
  Q 778.44 221.41 774.23 218.47
  A 1.86 1.85 44.1 0 0 772.06 218.50
  C 767.70 221.72 761.54 225.65 755.87 225.68
  C 745.44 225.74 734.88 225.27 724.50 226.22
  Q 715.06 227.09 709.52 220.22
  A 1.38 1.38 0.0 0 0 707.49 220.10
  C 704.58 222.96 701.73 225.16 697.41 225.21
  C 694.98 225.24 692.45 225.62 690.19 225.63
  Q 676.13 225.64 662.08 225.65
  C 656.27 225.66 652.17 223.27 648.43 219.22
  A 1.33 1.33 0.0 0 0 646.38 219.35
  C 643.04 223.97 639.03 225.66 633.26 225.64
  C 622.79 225.61 612.33 225.53 601.88 226.01
  C 595.36 226.30 588.12 225.17 585.39 218.71
  A 0.66 0.66 0.0 0 0 584.57 218.35
  Z
  M 658.24 134.22
  Q 658.88 136.48 659.06 138.00
  Q 660.09 146.70 660.68 157.49
  Q 661.34 169.50 662.23 181.50
  C 662.56 186.04 665.79 192.02 671.00 192.15
  Q 683.67 192.47 696.32 191.83
  C 698.86 191.70 700.25 191.64 701.12 188.93
  Q 702.13 185.73 701.80 183.50
  C 696.94 150.78 691.38 118.20 686.34 85.51
  C 685.77 81.82 684.50 75.89 683.70 70.50
  Q 682.68 63.62 678.04 38.78
  Q 677.52 36.03 675.57 34.66
  C 670.31 30.98 665.21 30.21 658.23 30.18
  Q 643.33 30.11 628.43 30.17
  C 620.72 30.20 616.06 29.93 612.14 36.22
  C 608.56 41.96 607.57 46.98 606.90 53.83
  C 603.53 88.08 599.20 122.21 596.31 156.51
  Q 595.67 164.02 594.63 171.49
  C 594.15 174.90 594.32 178.20 594.36 181.60
  C 594.50 194.74 612.02 191.95 620.10 192.63
  Q 623.52 192.92 625.88 192.53
  C 633.35 191.28 636.53 189.49 636.98 181.24
  Q 637.70 167.87 638.03 154.49
  Q 638.22 146.23 638.94 138.01
  Q 639.21 134.88 642.50 134.27
  Q 650.66 132.76 657.54 133.62
  Q 658.09 133.69 658.24 134.22
  Z
  M 471.21 126.28
  C 462.16 107.66 440.97 104.59 423.16 100.43
  Q 415.30 98.59 411.96 95.84
  C 406.69 91.51 407.35 83.38 413.50 80.67
  C 421.64 77.08 432.24 79.97 441.65 82.54
  C 444.79 83.39 449.20 84.09 451.44 82.48
  C 455.60 79.48 460.65 72.64 464.41 68.23
  C 467.17 64.98 469.90 62.32 470.89 58.92
  Q 471.03 58.43 470.86 57.95
  Q 468.40 50.99 462.03 47.14
  C 445.27 37.02 424.21 35.97 405.53 40.36
  C 380.14 46.33 358.23 67.73 359.82 95.33
  C 361.04 116.71 374.84 126.38 394.11 131.12
  Q 401.26 132.88 408.47 134.42
  Q 416.66 136.16 419.04 137.86
  C 426.23 142.98 423.72 149.94 417.15 153.40
  C 407.48 158.50 389.34 155.22 379.50 152.02
  Q 377.71 151.43 374.16 151.24
  A 1.52 1.45 27.8 0 0 373.21 151.51
  C 367.54 155.60 361.86 162.95 358.55 168.64
  C 353.54 177.25 363.71 185.88 370.83 188.92
  C 389.75 197.00 414.66 197.80 434.52 193.00
  C 449.19 189.46 461.26 179.69 468.81 166.76
  C 475.54 155.24 477.15 138.51 471.21 126.28
  Z
  M 755.17 138.46
  Q 756.46 139.43 757.46 141.06
  C 765.78 154.55 775.92 168.45 785.04 182.18
  C 787.36 185.67 791.96 192.10 796.50 192.11
  Q 809.87 192.16 823.25 192.13
  C 831.27 192.12 833.01 183.99 832.21 178.00
  Q 824.25 118.12 816.14 58.26
  C 815.05 50.24 814.33 39.31 803.53 38.93
  Q 792.39 38.54 781.26 39.21
  C 775.42 39.56 772.62 44.79 773.01 50.00
  Q 774.72 72.74 777.44 96.03
  A 0.33 0.33 0.0 0 1 776.92 96.33
  Q 776.48 96.01 776.08 95.44
  Q 764.60 79.18 753.55 62.64
  C 747.97 54.30 739.65 40.25 735.02 39.74
  Q 729.95 39.18 716.91 39.71
  C 709.67 40.01 704.77 39.59 701.99 46.19
  C 700.79 49.01 701.19 54.29 701.43 57.44
  Q 706.02 118.46 710.40 179.50
  C 710.79 184.86 714.40 192.23 720.25 192.22
  Q 739.94 192.20 746.51 192.42
  C 756.73 192.75 758.51 184.78 757.69 176.50
  Q 755.81 157.66 754.60 138.76
  Q 754.56 137.99 755.17 138.46
  Z
  M 90.08 86.86
  Q 92.12 70.40 93.34 52.24
  C 93.72 46.58 91.59 41.65 85.17 41.33
  Q 75.21 40.84 65.21 40.95
  Q 58.11 41.03 55.45 42.33
  C 50.21 44.88 49.36 51.60 48.67 56.99
  Q 40.91 117.47 33.41 177.98
  Q 32.83 182.57 33.65 185.73
  C 35.26 191.92 39.86 193.03 45.98 193.06
  Q 55.17 193.10 64.34 193.13
  C 70.76 193.16 74.53 193.50 77.97 188.52
  Q 80.40 185.01 80.77 181.75
  Q 82.83 163.52 84.66 146.58
  Q 84.94 143.99 86.14 146.31
  C 90.58 154.93 95.56 163.35 99.82 171.94
  C 103.76 179.90 107.33 188.37 113.54 192.25
  A 4.80 4.78 -28.3 0 0 115.96 192.97
  Q 132.57 193.37 149.75 193.18
  Q 154.86 193.13 157.31 188.95
  Q 157.58 188.49 158.01 188.81
  C 160.65 190.80 162.28 193.38 166.00 193.42
  Q 181.00 193.55 196.00 193.44
  C 202.00 193.39 205.82 187.53 206.03 182.50
  Q 206.87 162.67 208.38 144.25
  Q 208.62 141.40 210.00 143.90
  Q 221.36 164.46 232.38 185.54
  C 234.41 189.43 237.78 193.48 242.75 193.43
  Q 265.01 193.22 288.08 193.23
  A 1.22 1.22 0.0 0 0 289.26 191.71
  C 288.72 189.56 287.80 187.39 286.56 185.31
  Q 272.56 161.86 259.11 138.09
  Q 257.43 135.12 256.10 132.02
  A 1.25 1.24 61.8 0 1 256.56 130.49
  C 269.37 121.97 281.00 108.93 283.53 93.51
  C 289.13 59.30 258.32 40.44 228.50 40.49
  Q 205.16 40.52 181.86 41.98
  C 175.19 42.40 169.95 42.45 169.34 50.00
  Q 165.38 99.64 161.31 149.27
  Q 160.05 164.67 158.38 179.97
  A 0.55 0.52 -21.6 0 1 158.24 180.27
  Q 157.68 180.83 157.24 180.03
  Q 141.93 152.32 127.20 124.29
  Q 124.47 119.10 123.22 115.96
  C 122.42 113.96 123.10 112.83 124.21 111.21
  C 133.71 97.30 143.48 83.58 153.15 69.78
  Q 159.08 61.32 165.51 53.23
  C 170.22 47.29 162.84 41.15 157.25 40.76
  Q 144.01 39.81 130.75 40.03
  C 124.04 40.13 117.80 49.67 114.09 54.84
  Q 104.37 68.35 94.71 81.91
  Q 92.70 84.74 91.25 87.25
  Q 89.70 89.95 90.08 86.86
  Z
  M 292.63 181.99
  A 10.89 10.89 0.0 0 0 303.50 193.53
  L 331.03 193.54
  A 10.89 10.89 0.0 0 0 341.92 183.04
  L 346.58 53.72
  A 10.89 10.89 0.0 0 0 335.56 42.44
  L 311.17 42.74
  A 10.89 10.89 0.0 0 0 300.43 52.97
  L 292.63 181.99
  Z
  M 513.49 82.65
  A 0.52 0.52 0.0 0 1 513.89 83.13
  Q 515.51 125.16 517.38 167.25
  Q 517.71 174.88 518.44 182.48
  C 519.05 188.85 522.94 192.70 529.25 192.72
  Q 539.85 192.75 550.46 192.80
  C 557.88 192.83 563.32 193.61 566.02 186.57
  C 567.16 183.61 566.92 179.09 566.74 176.00
  C 564.98 145.08 563.98 114.12 561.62 83.24
  A 0.52 0.52 0.0 0 1 562.12 82.67
  Q 573.96 82.33 586.00 82.57
  C 592.90 82.71 594.79 83.13 598.20 77.19
  Q 599.25 75.36 599.21 73.07
  Q 599.07 62.67 598.30 52.30
  C 598.10 49.54 597.21 47.47 595.64 45.39
  C 593.83 42.98 591.38 43.19 588.25 43.14
  Q 536.63 42.35 485.00 42.74
  C 477.93 42.80 472.22 44.56 471.84 52.29
  Q 471.55 58.28 471.91 68.25
  C 472.15 74.74 472.97 81.68 481.25 81.89
  Q 495.87 82.27 510.50 82.34
  Q 512.11 82.34 513.49 82.65
  Z"
/>
<path fill="#ffffff" d="
  M 657.54 133.62
  Q 650.66 132.76 642.50 134.27
  Q 639.21 134.88 638.94 138.01
  Q 638.22 146.23 638.03 154.49
  Q 637.70 167.87 636.98 181.24
  C 636.53 189.49 633.35 191.28 625.88 192.53
  Q 623.52 192.92 620.10 192.63
  C 612.02 191.95 594.50 194.74 594.36 181.60
  C 594.32 178.20 594.15 174.90 594.63 171.49
  Q 595.67 164.02 596.31 156.51
  C 599.20 122.21 603.53 88.08 606.90 53.83
  C 607.57 46.98 608.56 41.96 612.14 36.22
  C 616.06 29.93 620.72 30.20 628.43 30.17
  Q 643.33 30.11 658.23 30.18
  C 665.21 30.21 670.31 30.98 675.57 34.66
  Q 677.52 36.03 678.04 38.78
  Q 682.68 63.62 683.70 70.50
  C 684.50 75.89 685.77 81.82 686.34 85.51
  C 691.38 118.20 696.94 150.78 701.80 183.50
  Q 702.13 185.73 701.12 188.93
  C 700.25 191.64 698.86 191.70 696.32 191.83
  Q 683.67 192.47 671.00 192.15
  C 665.79 192.02 662.56 186.04 662.23 181.50
  Q 661.34 169.50 660.68 157.49
  Q 660.09 146.70 659.06 138.00
  Q 658.88 136.48 658.24 134.22
  Q 658.09 133.69 657.54 133.62
  Z
  M 654.17 82.24
  C 653.70 76.41 647.49 76.37 643.16 77.85
  A 1.11 1.09 0.4 0 0 642.47 78.52
  Q 641.34 81.77 640.91 87.30
  Q 639.94 99.70 639.77 112.08
  A 1.04 1.04 0.0 0 0 640.80 113.14
  L 655.47 113.24
  A 1.13 1.13 0.0 0 0 656.60 112.02
  Q 655.34 96.62 654.17 82.24
  Z"
/>
<path fill="#ffffff" d="
  M 423.16 100.43
  C 440.97 104.59 462.16 107.66 471.21 126.28
  C 477.15 138.51 475.54 155.24 468.81 166.76
  C 461.26 179.69 449.19 189.46 434.52 193.00
  C 414.66 197.80 389.75 197.00 370.83 188.92
  C 363.71 185.88 353.54 177.25 358.55 168.64
  C 361.86 162.95 367.54 155.60 373.21 151.51
  A 1.52 1.45 27.8 0 1 374.16 151.24
  Q 377.71 151.43 379.50 152.02
  C 389.34 155.22 407.48 158.50 417.15 153.40
  C 423.72 149.94 426.23 142.98 419.04 137.86
  Q 416.66 136.16 408.47 134.42
  Q 401.26 132.88 394.11 131.12
  C 374.84 126.38 361.04 116.71 359.82 95.33
  C 358.23 67.73 380.14 46.33 405.53 40.36
  C 424.21 35.97 445.27 37.02 462.03 47.14
  Q 468.40 50.99 470.86 57.95
  Q 471.03 58.43 470.89 58.92
  C 469.90 62.32 467.17 64.98 464.41 68.23
  C 460.65 72.64 455.60 79.48 451.44 82.48
  C 449.20 84.09 444.79 83.39 441.65 82.54
  C 432.24 79.97 421.64 77.08 413.50 80.67
  C 407.35 83.38 406.69 91.51 411.96 95.84
  Q 415.30 98.59 423.16 100.43
  Z"
/>
<path fill="#ffffff" d="
  M 754.60 138.76
  Q 755.81 157.66 757.69 176.50
  C 758.51 184.78 756.73 192.75 746.51 192.42
  Q 739.94 192.20 720.25 192.22
  C 714.40 192.23 710.79 184.86 710.40 179.50
  Q 706.02 118.46 701.43 57.44
  C 701.19 54.29 700.79 49.01 701.99 46.19
  C 704.77 39.59 709.67 40.01 716.91 39.71
  Q 729.95 39.18 735.02 39.74
  C 739.65 40.25 747.97 54.30 753.55 62.64
  Q 764.60 79.18 776.08 95.44
  Q 776.48 96.01 776.92 96.33
  A 0.33 0.33 0.0 0 0 777.44 96.03
  Q 774.72 72.74 773.01 50.00
  C 772.62 44.79 775.42 39.56 781.26 39.21
  Q 792.39 38.54 803.53 38.93
  C 814.33 39.31 815.05 50.24 816.14 58.26
  Q 824.25 118.12 832.21 178.00
  C 833.01 183.99 831.27 192.12 823.25 192.13
  Q 809.87 192.16 796.50 192.11
  C 791.96 192.10 787.36 185.67 785.04 182.18
  C 775.92 168.45 765.78 154.55 757.46 141.06
  Q 756.46 139.43 755.17 138.46
  Q 754.56 137.99 754.60 138.76
  Z"
/>
<path fill="#ffffff" d="
  M 90.08 86.86
  Q 89.70 89.95 91.25 87.25
  Q 92.70 84.74 94.71 81.91
  Q 104.37 68.35 114.09 54.84
  C 117.80 49.67 124.04 40.13 130.75 40.03
  Q 144.01 39.81 157.25 40.76
  C 162.84 41.15 170.22 47.29 165.51 53.23
  Q 159.08 61.32 153.15 69.78
  C 143.48 83.58 133.71 97.30 124.21 111.21
  C 123.10 112.83 122.42 113.96 123.22 115.96
  Q 124.47 119.10 127.20 124.29
  Q 141.93 152.32 157.24 180.03
  Q 157.68 180.83 158.24 180.27
  A 0.55 0.52 -21.6 0 0 158.38 179.97
  Q 160.05 164.67 161.31 149.27
  Q 165.38 99.64 169.34 50.00
  C 169.95 42.45 175.19 42.40 181.86 41.98
  Q 205.16 40.52 228.50 40.49
  C 258.32 40.44 289.13 59.30 283.53 93.51
  C 281.00 108.93 269.37 121.97 256.56 130.49
  A 1.25 1.24 61.8 0 0 256.10 132.02
  Q 257.43 135.12 259.11 138.09
  Q 272.56 161.86 286.56 185.31
  C 287.80 187.39 288.72 189.56 289.26 191.71
  A 1.22 1.22 0.0 0 1 288.08 193.23
  Q 265.01 193.22 242.75 193.43
  C 237.78 193.48 234.41 189.43 232.38 185.54
  Q 221.36 164.46 210.00 143.90
  Q 208.62 141.40 208.38 144.25
  Q 206.87 162.67 206.03 182.50
  C 205.82 187.53 202.00 193.39 196.00 193.44
  Q 181.00 193.55 166.00 193.42
  C 162.28 193.38 160.65 190.80 158.01 188.81
  Q 157.58 188.49 157.31 188.95
  Q 154.86 193.13 149.75 193.18
  Q 132.57 193.37 115.96 192.97
  A 4.80 4.78 -28.3 0 1 113.54 192.25
  C 107.33 188.37 103.76 179.90 99.82 171.94
  C 95.56 163.35 90.58 154.93 86.14 146.31
  Q 84.94 143.99 84.66 146.58
  Q 82.83 163.52 80.77 181.75
  Q 80.40 185.01 77.97 188.52
  C 74.53 193.50 70.76 193.16 64.34 193.13
  Q 55.17 193.10 45.98 193.06
  C 39.86 193.03 35.26 191.92 33.65 185.73
  Q 32.83 182.57 33.41 177.98
  Q 40.91 117.47 48.67 56.99
  C 49.36 51.60 50.21 44.88 55.45 42.33
  Q 58.11 41.03 65.21 40.95
  Q 75.21 40.84 85.17 41.33
  C 91.59 41.65 93.72 46.58 93.34 52.24
  Q 92.12 70.40 90.08 86.86
  Z
  M 212.72 81.99
  L 211.84 105.22
  Q 211.82 105.61 212.21 105.60
  Q 219.79 105.46 225.71 104.40
  C 232.00 103.27 238.21 97.77 237.46 90.94
  C 236.23 79.73 220.44 81.36 212.83 81.87
  A 0.12 0.12 0.0 0 0 212.72 81.99
  Z"
/>
<path fill="#ffffff" d="
  M 292.63 181.99
  L 300.43 52.97
  A 10.89 10.89 0.0 0 1 311.17 42.74
  L 335.56 42.44
  A 10.89 10.89 0.0 0 1 346.58 53.72
  L 341.92 183.04
  A 10.89 10.89 0.0 0 1 331.03 193.54
  L 303.50 193.53
  A 10.89 10.89 0.0 0 1 292.63 181.99
  Z"
/>
<path fill="#ffffff" d="
  M 513.49 82.65
  Q 512.11 82.34 510.50 82.34
  Q 495.87 82.27 481.25 81.89
  C 472.97 81.68 472.15 74.74 471.91 68.25
  Q 471.55 58.28 471.84 52.29
  C 472.22 44.56 477.93 42.80 485.00 42.74
  Q 536.63 42.35 588.25 43.14
  C 591.38 43.19 593.83 42.98 595.64 45.39
  C 597.21 47.47 598.10 49.54 598.30 52.30
  Q 599.07 62.67 599.21 73.07
  Q 599.25 75.36 598.20 77.19
  C 594.79 83.13 592.90 82.71 586.00 82.57
  Q 573.96 82.33 562.12 82.67
  A 0.52 0.52 0.0 0 0 561.62 83.24
  C 563.98 114.12 564.98 145.08 566.74 176.00
  C 566.92 179.09 567.16 183.61 566.02 186.57
  C 563.32 193.61 557.88 192.83 550.46 192.80
  Q 539.85 192.75 529.25 192.72
  C 522.94 192.70 519.05 188.85 518.44 182.48
  Q 517.71 174.88 517.38 167.25
  Q 515.51 125.16 513.89 83.13
  A 0.52 0.52 0.0 0 0 513.49 82.65
  Z"
/>
<path fill="#000000" d="
  M 643.16 77.85
  C 647.49 76.37 653.70 76.41 654.17 82.24
  Q 655.34 96.62 656.60 112.02
  A 1.13 1.13 0.0 0 1 655.47 113.24
  L 640.80 113.14
  A 1.04 1.04 0.0 0 1 639.77 112.08
  Q 639.94 99.70 640.91 87.30
  Q 641.34 81.77 642.47 78.52
  A 1.11 1.09 0.4 0 1 643.16 77.85
  Z"
/>
<path fill="#000000" d="
  M 212.72 81.99
  A 0.12 0.12 0.0 0 1 212.83 81.87
  C 220.44 81.36 236.23 79.73 237.46 90.94
  C 238.21 97.77 232.00 103.27 225.71 104.40
  Q 219.79 105.46 212.21 105.60
  Q 211.82 105.61 211.84 105.22
  L 212.72 81.99
  Z"
/>
</svg>
