<?xml version="1.0" encoding="UTF-8" standalone="no"?>
<svg
   viewBox="0 0 243.60536 121.80268"
   version="1.1"
   id="svg4"
   sodipodi:docname="panton-logo200x100.svg"
   width="200"
   height="100"
   inkscape:version="1.2.1 (9c6d41e410, 2022-07-14)"
   xmlns:inkscape="http://www.inkscape.org/namespaces/inkscape"
   xmlns:sodipodi="http://sodipodi.sourceforge.net/DTD/sodipodi-0.dtd"
   xmlns="http://www.w3.org/2000/svg"
   xmlns:svg="http://www.w3.org/2000/svg">
  <defs
     id="defs8" />
  <sodipodi:namedview
     id="namedview6"
     pagecolor="#ffffff"
     bordercolor="#000000"
     borderopacity="0.25"
     inkscape:showpageshadow="2"
     inkscape:pageopacity="0.0"
     inkscape:pagecheckerboard="0"
     inkscape:deskcolor="#d1d1d1"
     showgrid="false"
     inkscape:zoom="4.4415145"
     inkscape:cx="112.46164"
     inkscape:cy="83.642641"
     inkscape:window-width="1920"
     inkscape:window-height="991"
     inkscape:window-x="-9"
     inkscape:window-y="-9"
     inkscape:window-maximized="1"
     inkscape:current-layer="svg4" />
  <path
     d="m 57.61761,21.17507 c -4.9,3.88 -15.17,12.67 -21.89,9.86 a 1.08,1.06 1.6 0 1 -0.58,-0.6 q -0.4,-1.07 0.65,-1.27 c 2.72,-0.52 5.51,-1.16 7.95,-2.57 7.46,-4.31 15.94,-10.43 20.12,-17.9899996 l 4.02,-7.28 q 0.93,-1.67999998 2.4,-1.22999998 a 1.78,1.78 0 0 1 1.16,2.24999998 c -0.73,2.25 -1.45,4.16 -2.71,6.25 q -6.56,10.9099996 -11.08,22.7799996 c -4.09,10.76 -7.45,18.4 -11.35,27.54 a 0.24,0.24 0 0 0 0.38,0.27 q 9.79,-9.06 18.61,-16.46 4.76,-3.98 15.35,-11.99 c 9.14,-6.92 17.83,-14.28 27.17,-20.9899996 q 1.88,-1.35 3.93,-0.72 0.49,0.15 0.75,0.59 7.35,12.3799996 17.48,22.5399996 c 1.3,1.31 2.74,1.98 4.35,2.79 a 1.49,1.55 1.1 0 1 0.72,0.78 q 0.53,1.3 -0.81,1.71 c -10.28,3.14 -19.87,6.37 -30.25,10.86 q -18.92,8.18 -42.62,17.73 -1.61,0.65 -3.26,0.86 -1.86,0.24 -2.06,-1.63 l -0.04,-0.42 a 1.5,1.5 0 0 1 1.1,-1.6 q 2.32,-0.61 4.35,-1.4 21.3,-8.3 42.26,-17.42 c 7.76,-3.38 15.53,-5.93 23.41,-8.63 a 0.57,0.57 0 0 0 0.22,-0.93 q -6.24,-6.37 -11.57,-13.53 c -1.38,-1.86 -3.39,-5.25 -5.61,-7.58 a 1.06,1.07 51 0 0 -1.39,-0.14 c -9.33,6.58 -18.63,14.37 -27.07,20.77 q -19.8,15.04 -37.75,32.32 -1.15,1.1 -1.89,2.51 c -3.06,5.85 -5.54,11.54 -9.65,16.96 q -5.16,6.81 -10.6,13.38 c -4.19,5.05 -12.4399997,11.86 -19.1799997,12.51 q -2.09999999,0.21 -2.50999999,-1.94 c -0.7,-3.61 1.57999999,-6.51 4.38999999,-9.37 q 16.3399997,-16.66 32.9399997,-33.07 c 2.64,-2.61 4.19,-6.83 5.81,-10.48 q 7.87,-17.67 14.65,-35.8 0.24,-0.65 -0.3,-0.22 z m -23.63,56.57 q 2.77,-4.22 -0.82,-0.68 -12.82,12.6 -27.0399997,27.3 -1.5,1.56 -2.33,3.27 -0.5,1.03 0.55,0.58 c 8.9599997,-3.87 13.9299997,-9.86 20.8099997,-18.38 q 4.66,-5.76 8.83,-12.09 z m 54.96,29.08 a 0.37,0.38 23 0 0 0.64,-0.26 l 0.35,-12.46 a 0.55,0.54 0.5 0 0 -0.56,-0.56 l -20.5,0.22 q -0.63,0 -1.13,0.39 l -13.72,10.43 a 1.25,1.25 0 0 1 -1.88,-0.45 l -0.32,-0.68 q -0.81,-1.67 0.78,-2.63 c 2.53,-1.52 10.96,-6.58 12.74,-10.8 a 0.97,0.96 4.7 0 1 0.68,-0.57 q 2.04,-0.44 2.66,-1 9.33,-8.39 21.77,-17.74 2.06,-1.55 3.99,-0.38 a 1,1.03 13.9 0 1 0.49,0.84 q 0.22,5.96 -1.09,13.93 -0.15,0.95 -0.15,4.6 a 0.42,0.42 0 0 0 0.48,0.41 q 5.12,-0.75 10.2,-0.26 1.38,0.14 0.39,1.12 c -1.58,1.56 -8.44,2.22 -10.74,2.37 a 0.94,0.94 0 0 0 -0.87,0.87 c -0.34,4.48 -1.15,12.15 0.55,16.32 a 1.58,1.58 0 0 1 -0.18,1.52 c -0.72,1.01 -1.8,0.79 -2.71,0.12 -2.91,-2.14 -6.22,-3.35 -7.71,-7 a 1.15,1.15 0 0 1 0.76,-1.54 q 0.88,-0.24 1.96,0.55 1.74,1.28 3.12,2.64 z m 2.91,-32.23 a 0.33,0.33 0 0 0 -0.53,-0.3 l -19.05,15.46 a 0.33,0.33 0 0 0 0.22,0.58 l 17.25,-0.3 a 0.33,0.33 0 0 0 0.32,-0.3 z m 18.65,19.33 c -1.12,5.17 -2.54,10.63 -5.63,15.63 q -0.62,0.99 -1.71,0.58 l -0.4,-0.15 a 1.02,1.03 22.2 0 1 -0.57,-1.37 c 3.9,-9.1 5.74,-18.66 8.17,-28.02 a 1.58,1.57 6.8 0 1 1.5,-1.18 q 1.48,-0.03 1.67,1.46 c 0.46,3.59 1.07,7.09 1.15,10.68 q 0.21,9.78 0.2,19.56 -0.01,0.82 0.58,1.57 0.32,0.41 0.48,-0.08 c 1.56,-4.64 2.72,-9.32 4.69,-13.79 q 4.04,-9.16 7.32,-18.62 c 1.08,-3.11 3.47,-6.28 7.14,-4.52 1.16,0.56 1.54,1.97 0.45,2.77 q -0.41,0.31 -0.93,0.27 -2.18,-0.17 -2.69,1.27 -3.37,9.5 -7.34,18.76 c -2.79,6.54 -4.75,13.81 -7.56,20.74 a 1.69,1.69 0 0 1 -1.42,1.05 c -3.43,0.31 -3.89,-8.85 -3.91,-11.01 q -0.07,-7.71 -0.2,-15.5 -0.07,-4.32 -0.99,-0.1 z m 42.39,-13.61 a 0.5,0.49 8.7 0 0 -0.49,-0.66 l -13.44,0.52 a 1.03,1.03 0 0 1 -1.07,-1.11 l 0.02,-0.29 q 0.11,-1.31 1.41,-1.44 11.69,-1.18 23.13,-1.52 c 4.29,-0.12 8.01,-0.53 12.19,0.59 q 1.54,0.41 0.07,1.02 c -5.2,2.11 -11.95,1.26 -17.7,2.05 q -0.5,0.07 -0.65,0.55 -4.1,13.05 -7.72,26.16 -0.76,2.73 -2.33,4.52 -0.97,1.11 -0.95,-0.37 c 0.11,-8.11 4.31,-20.83 7.53,-30.02 z m 18.64,29.29 c 2.6,-9.77 5.85,-18.94 7.87,-28.48 q 0.91,-4.33 5.47,-4.75 10.62,-0.97 21.25,-0.29 c 2.64,0.17 2.81,1.77 2.26,3.99 -0.96,3.82 -1.65,7.54 -3.03,11.28 q -2.37,6.39 -4.13,12.96 c -0.68,2.55 -2.39,8.5 -5.86,7.66 q -4.95,-1.21 -9.99,-0.74 c -3.17,0.31 -11.25,1.42 -13.26,-0.02 a 1.49,1.5 25 0 1 -0.58,-1.61 z m 31.04,-21.75 c 0.89,-2.54 1.16,-5.34 2.15,-7.71 a 0.7,0.7 0 0 0 -0.56,-0.97 c -7.1,-0.81 -13.89,0.57 -20.95,0.49 q -0.51,-0.01 -0.55,0.5 c -0.7,9.3 -4.59,18.62 -7.01,27.62 a 0.64,0.64 0 0 0 0.7,0.8 q 9.26,-1.12 18.56,-0.51 0.5,0.04 0.82,-0.35 1.64,-2.01 2.18,-4.1 2.33,-9.16 4.66,-15.77 z m 14.74,8.25 q -1.59,6.9 -4.57,13.29 -0.56,1.2 -1.82,1.62 l -0.49,0.15 a 0.89,0.89 0 0 1 -1.13,-1.1 q 0.95,-3.13 1.91,-5.75 c 2.66,-7.21 4.17,-15 6.01,-22.47 q 0.44,-1.75 2.17,-1.52 a 1.38,1.38 0 0 1 1.18,1.18 c 1.34,10.26 1.32,20.27 1.3,30.61 q 0,0.8 0.54,1.66 0.3,0.5 0.49,-0.06 c 1.65,-4.95 2.93,-9.89 5.05,-14.66 q 4.01,-9.05 7.31,-18.39 c 1.2,-3.39 4.79,-6.33 7.58,-3.54 q 0.95,0.95 0.09,1.89 -0.33,0.36 -0.82,0.41 -2.68,0.25 -3.87,3.27 c -2.5,6.38 -4.86,12.55 -7.43,18.83 -2.23,5.43 -4.16,12.55 -6.7,18.8 a 1.9,1.9 0 0 1 -2.53,1.02 c -3.88,-1.69 -2.93,-21.48 -2.96,-25.1 q -0.03,-5.73 -1.31,-0.14 z"
     id="path2" />
</svg>
